<svg xmlns="http://www.w3.org/2000/svg" width="60" height="60"><path d="M59.502 35.4a29.955 29.955 0 0 1-7.66 15.167 29.915 29.915 0 0 1-2.202-2.61l1.297-1.258a1.701 1.701 0 0 0-2.37-2.442l-.839.815a29.58 29.58 0 0 1-1.602-3.186L48 41.08a1.701 1.701 0 1 0-1.347-3.125l-1.692.729a30.538 30.538 0 0 1-.794-3.283c-.013-.07-.023-.14-.035-.21l1.584-.156a1.7 1.7 0 1 0-.332-3.386l-1.653.162a29.933 29.933 0 0 1-.013-3.412l1.666.163a1.702 1.702 0 0 0 .333-3.386l-1.628-.16c.2-1.188.47-2.361.811-3.514l1.753.755a1.702 1.702 0 0 0 1.346-3.125l-1.95-.84a29.913 29.913 0 0 1 1.606-3.224l.914.886a1.697 1.697 0 0 0 2.406-.036 1.701 1.701 0 0 0-.037-2.405l-1.384-1.344a30.14 30.14 0 0 1 2.286-2.733 30.38 30.38 0 0 1 2.84 3.521c4.552 6.592 6.265 14.563 4.823 22.444zM10.384 7.01C15.657 2.495 22.597 0 29.961 0c1.81 0 3.64.167 5.438.496 5.239.959 10.02 3.238 13.976 6.594a33.555 33.555 0 0 0-2.286 2.687L45.98 8.7a1.7 1.7 0 1 0-2.37 2.441l1.535 1.49a33.277 33.277 0 0 0-2.22 4.314l-1.27-.547a1.701 1.701 0 1 0-1.348 3.125l1.449.624a33.277 33.277 0 0 0-1.063 4.536l-1.853-.182a1.702 1.702 0 0 0-.333 3.386l1.821.18a33.391 33.391 0 0 0 .017 4.077l-1.838.18a1.701 1.701 0 1 0 .333 3.387l1.899-.187c.027.163.052.327.082.49.251 1.371.586 2.713.997 4.024l-1.51.65a1.701 1.701 0 1 0 1.346 3.126l1.348-.58a32.969 32.969 0 0 0 2.221 4.27L43.61 49.07a1.701 1.701 0 0 0 2.37 2.442l1.202-1.166a33.418 33.418 0 0 0 2.194 2.563A29.868 29.868 0 0 1 30.034 60c-1.812 0-3.641-.167-5.438-.496a29.808 29.808 0 0 1-14.088-6.715 33.366 33.366 0 0 0 2.082-2.443l1.201 1.166c.331.32.758.48 1.185.48a1.701 1.701 0 0 0 1.185-2.922l-1.612-1.565a32.922 32.922 0 0 0 2.22-4.272l1.349.58a1.702 1.702 0 0 0 1.346-3.125l-1.51-.65c.41-1.311.746-2.654.997-4.024.03-.163.055-.327.082-.49l1.899.186a1.702 1.702 0 0 0 .333-3.386l-1.838-.18c.089-1.365.093-2.726.016-4.078l1.821-.179a1.7 1.7 0 1 0-.332-3.386l-1.853.182a33.277 33.277 0 0 0-1.063-4.536l1.448-.624a1.701 1.701 0 1 0-1.347-3.125l-1.27.547a33.326 33.326 0 0 0-2.22-4.314l1.534-1.49a1.701 1.701 0 0 0-2.37-2.441l-1.11 1.077a33.66 33.66 0 0 0-2.184-2.58m-2.249 2.58c.78.836 1.298 1.484 1.97 2.391l-1.385 1.344a1.701 1.701 0 0 0 2.37 2.442l.914-.887a29.913 29.913 0 0 1 1.604 3.224l-1.95.84a1.701 1.701 0 1 0 1.347 3.125l1.753-.755a29.84 29.84 0 0 1 .81 3.515l-1.626.16a1.7 1.7 0 1 0 .332 3.386l1.666-.164c.06 1.131.057 2.27-.013 3.413l-1.652-.163a1.702 1.702 0 0 0-.333 3.387l1.584.155c-.012.07-.022.14-.035.21a30.55 30.55 0 0 1-.794 3.283l-1.692-.729a1.701 1.701 0 1 0-1.347 3.125l1.873.807a29.629 29.629 0 0 1-1.602 3.185l-.84-.814a1.701 1.701 0 1 0-2.37 2.442l1.298 1.258a29.937 29.937 0 0 1-2.076 2.474C1.827 43.726-1.277 34.27.494 24.598A29.951 29.951 0 0 1 8.04 9.552" fill="#bcf6e2"/></svg>
