<svg xmlns="http://www.w3.org/2000/svg" width="60" height="60" viewBox="0 0 15.88 15.88" id="svg8"><g id="layer1" transform="translate(0 -281.12)"><g id="g4710" transform="matrix(-.97216 0 0 .97218 16.56 8.59)"><circle r="7.9" cy="288.5" cx="8.87" id="path4688" fill="#fff" stroke="#c8b7b7" stroke-width=".53"/><g transform="translate(-6.62 -6.53)" id="g4701" fill="#a02c2c" stroke="#a02c2c"><path d="M20.13 290a.39.39 0 0 1-.08-.06 1.12 1.12 0 0 1-.22-.31.68.68 0 0 0-.08-.14c-.02-.02-.03-.01-.06.03a4.39 4.39 0 0 0-.2.47v-.88h.02c.03-.02.07-.05.13-.13l.2-.21.23.15a.54.54 0 0 0 .05.63l.1.15.03.07a.2.2 0 0 1 0 .06.42.42 0 0 1-.1.17h-.02z" id="path4675" stroke-width="0"/><path id="path4677" d="M22.19 296.75a1.16 1.16 0 0 1-.02-.26c0-.32-.05-.38-.33-.42-.14-.02-.14-.02-.16.22-.02.23-.06.3-.15.3-.11 0-.13-.03-.11-.34v-.3a1.28 1.28 0 0 0-.4-.16.52.52 0 0 0-.04.17c-.02.18-.07.38-.1.4-.04.02-.2-.01-.23-.04 0-.02 0-.1.02-.19.03-.1.05-.23.05-.32 0-.13 0-.15-.07-.22-.07-.08-.4-.3-.43-.3l-.07.14c-.07.18-.18.4-.21.43-.02.01-.07-.02-.11-.06-.1-.1-.1-.12.02-.38.1-.24.11-.37.03-.5l-.31-.36-.12.2c-.05.1-.13.23-.18.27l-.07.1-.07-.14-.07-.12.1-.13c.28-.4.28-.49.04-1l-.08-.2-.05.06c-.18.15-.37.3-.42.32a.1.1 0 0 1-.09-.02c-.05-.04-.1-.18-.08-.2l.2-.14c.33-.23.34-.27.23-.7a1.45 1.45 0 0 0-.1-.29l-.06.05c-.06.07-.28.22-.39.27-.16.07-.22.04-.22-.1 0-.06.04-.1.2-.19.18-.1.33-.23.37-.32a1 1 0 0 0 .03-.3c0-.3-.02-.44-.06-.44l-.27.08c-.28.09-.31.08-.3-.08 0-.05.01-.1.03-.12.02-.02.1-.05.2-.07.18-.05.3-.1.36-.2.06-.09.24-.73.2-.76a.9.9 0 0 0-.24-.04.8.8 0 0 1-.25-.04c-.03-.03-.03-.15 0-.2.02-.04.06-.05.28-.05h.25l.1-.11c.1-.11.29-.46.29-.52 0-.04-.04-.05-.2-.07-.13-.01-.22-.07-.22-.13 0-.02.02-.07.05-.1l.06-.07.18.04.24.04h.06l-.01.56c-.01.67-.03.62.26.84.17.13.2.16.2.23.02.1 0 .19-.04.19-.05 0-.2-.11-.4-.28-.08-.08-.16-.14-.16-.13l-.04.26c-.07.34-.07.5 0 .57.06.05.31.16.44.18.08 0 .1.02.1.09.02.1 0 .2-.04.2a.76.76 0 0 1-.3-.06l-.2-.06c-.02 0-.03.05-.03.17 0 .24.04.46.1.49.02.01.14.02.26.01h.22v.09c-.01.12-.06.16-.22.17-.22.02-.24.02-.24.1 0 .06.04.26.1.47l.02.08.27.03c.26.02.28.03.34.1a.3.3 0 0 1 .06.1c0 .03-.08.06-.3.07a.78.78 0 0 0-.24.04c-.03.03.08.38.16.5.04.07.06.07.18.07.08 0 .18-.03.3-.08.2-.08.2-.08.27.08.04.1 0 .14-.31.24l-.27.08.11.13c.14.16.21.22.28.22.03 0 .15-.05.26-.1l.2-.11.11.1.1.12-.05.04c-.06.05-.29.14-.35.14-.11 0-.08.08.06.17l.14.12c.04.05.05.06.13.03l.2-.11c.16-.1.28-.11.36-.04.06.07.03.12-.15.23a.51.51 0 0 0-.13.1c0 .03.16.08.23.08.03 0 .15-.05.27-.12.25-.13.29-.13.36-.07l.05.04-.08.07-.16.13c-.11.09-.1.11.1.18l.14.06.14-.12c.2-.18.28-.22.36-.19.09.04.08.1-.03.21-.05.05-.1.1-.1.13l.06.1h.44l-.05.34c-.03.02-.46-.2-.5-.2-.07 0-.09.06-.09.32l-.01.2c-.02.05-.16.06-.19.01z" stroke-width=".05"/></g><path id="path4684" d="M2.66 285.24a.22.22 0 0 0-.15.07c-.05.07-.09.17-.12.36-.01.1-.02.13-.04.14-.04.02-.12.01-.28-.03a1.96 1.96 0 0 1-.3-.1c-.05.15-.1.24-.14.39.07.02.12.05.18.08l.2.1-.07.13c-.12.19-.16.3-.17.4l.01.1c.03.05.08.08.13.08.06 0 .1-.06.2-.26.07-.12.1-.17.14-.21a.26.26 0 0 1 .14-.08c.06-.01.22 0 .43.03l.22.05c.02.01.02 0 0 .06l-.1.18c-.1.14-.15.24-.18.32a.2.2 0 0 0 0 .07c0 .04 0 .06.02.08.03.03.06.04.12.05.07 0 .12-.04.19-.16.11-.19.28-.38.4-.45.11-.07.23-.09.5-.06l.3.05-.21.22c-.2.22-.27.3-.3.38-.03.04-.03.07-.02.1 0 .03.05.06.09.07.1.02.24-.05.46-.26.15-.14.2-.19.3-.24.08-.06.16-.1.26-.1a1.48 1.48 0 0 1 .27 0h.08c.1.02.2.06.19.09l-.1.09c-.13.09-.44.4-.48.47-.03.05-.01.08.07.13.07.04.17.04.27 0l.23-.18c.2-.18.31-.26.44-.33l.1-.06.3.17c.33.18.53.3.53.33l-.09.04-.24.06c-.17.05-.43.17-.5.22-.06.05-.03.12.08.19.12.07.18.06.42-.04.21-.09.33-.12.55-.13l.15-.02.15.16c.15.15.27.3.27.31 0 .02-.12.05-.33.08-.35.05-.51.1-.51.2 0 .03.11.28.13.28l.13-.04c.16-.07.24-.08.54-.1l.27-.01.03.1a18.93 18.93 0 0 1 .18.55c0 .02-.2.02-.7-.01l-.17-.01.04.15c.03.16.05.2.12.24l.35.03c.45.01.47.02.52.27l.13.7c0 .03-.17.02-.43 0a5.3 5.3 0 0 0-.27-.03h-.05v.14c0 .12.01.14.04.18.04.04.06.04.32.07.35.03.38.04.4.12.03.07.04.7.02.72 0 .01-.07 0-.13-.04-.3-.14-.6-.21-.63-.16-.02.03-.02.17 0 .24.02.06.03.07.14.12.06.04.18.09.25.11.16.07.34.16.37.19a3.01 3.01 0 0 1-.18.83 1 1 0 0 1-.18-.13c-.37-.3-.46-.35-.53-.28-.04.04-.06.15-.04.22.01.08.1.17.29.32.3.24.33.3.25.5-.07.17-.25.53-.28.56-.02 0-.04-.02-.12-.13-.17-.27-.43-.5-.55-.5-.04 0-.14.1-.16.15-.01.06.04.15.24.37.37.42.38.48.12.75l-.12.13-.15-.14c-.14-.13-.3-.25-.46-.34l-.07-.05-.08.07c-.1.08-.12.12-.1.16l.2.15c.17.12.37.3.37.34 0 .04-.14.16-.25.22-.15.08-.2.12-.2.15 0 .04.03.05.22.09.26.05.33.04.5-.05a.7.7 0 0 1 .32-.09l.25-.02c.14-.01.19-.03.26-.1.11-.1.1-.14-.07-.19l-.18-.05-.05-.01.14-.14.13-.14h.31c.36.01.38 0 .47-.1.06-.07.06-.13.02-.15l-.25-.08a2.06 2.06 0 0 1-.24-.07c-.01-.02.3-.6.36-.66.07-.07.13-.09.35-.09l.24-.01c.12-.02.2-.28.1-.34a1.7 1.7 0 0 0-.26-.04 3.23 3.23 0 0 1-.23-.03l.05-.27a70.45 70.45 0 0 0 .2-.81s.12-.05.26-.08c.38-.11.4-.12.4-.3 0-.14-.03-.16-.15-.15-.06 0-.2.03-.3.06l-.2.04-.02-.34c0-.18-.02-.4-.03-.47v-.13l.13-.09c.16-.1.28-.15.4-.2.13-.05.16-.09.16-.2 0-.06 0-.09-.04-.12-.06-.06-.13-.05-.33.03-.23.1-.37.15-.38.14l-.16-.6c-.05-.21-.05-.21-.01-.26.03-.06.18-.19.36-.3.2-.14.23-.21.15-.34-.08-.13-.09-.13-.23-.06-.06.04-.18.1-.25.16-.15.12-.2.15-.23.13a13.2 13.2 0 0 0-.29-.88c0-.08.1-.25.27-.43.14-.15.16-.2.14-.27a.71.71 0 0 0-.17-.22 1.94 1.94 0 0 0-.5.54c-.03 0-.65-.75-.7-.84-.01-.04 0-.06.13-.28.19-.3.2-.33.09-.44-.1-.1-.15-.1-.24-.02-.07.06-.18.22-.26.39a.6.6 0 0 1-.07.12l-.61-.33c-.14-.1-.15-.16-.1-.48.05-.23.05-.33 0-.35a.85.85 0 0 0-.27-.05c-.03.02-.1.33-.11.45-.02.17-.04.2-.15.19l-.47-.1-.03-.01v-.01h-.01l-.08-.03c-.06 0-.06-.01-.06-.02a2.14 2.14 0 0 1 .1-.43c.05-.14.05-.14.05-.2v-.06h-.02a.67.67 0 0 0-.25-.03.13.13 0 0 0-.07.06.8.8 0 0 0-.1.23l-.03.16c-.02.12-.03.17-.05.18H4.5a3.11 3.11 0 0 1-.58-.1c-.04 0-.04 0-.05-.02l-.01-.05c0-.04 0-.07.02-.13l.1-.22a.77.77 0 0 0 .08-.22v-.03l-.07-.04H3.9l-.14.01c-.1.04-.15.14-.2.43-.03.14-.06.22-.07.23h-.15a3.01 3.01 0 0 1-.6-.08c-.04-.03-.03-.14.01-.27a2.33 2.33 0 0 1 .17-.38 4.47 4.47 0 0 0-.26-.04z" fill="#a02c2c" stroke="#c8b7b7" stroke-width="0"/></g></g></svg>
