<svg xmlns="http://www.w3.org/2000/svg" width="60" height="60" viewBox="0 0 15.88 15.88"><g fill="#bcf6e2"><path d="M5.8 4.62a31.503 31.522 90 0 1 4.113 1.685c2.463 1.213 4.125 2.39 4.999 3.541l.364.546.097.23-.06.243a8.221 8.226 90 0 1-2.646 3.444c-.449.351-.607.412-.837.363-.607-.17-1.262-.727-1.857-1.564-.351-.485-.812-1.285-1.565-2.668-.873-1.649-1.334-2.425-1.868-3.116A5.796 5.8 90 0 0 4.5 5.505c0-.145.461-1.128.534-1.128l.777.243zM4.44 6.305c.365.158 1.093.825 1.517 1.37.51.68.874 1.298 1.93 3.25 1.104 2.038 1.334 2.413 1.856 3.044a5.214 5.217 90 0 0 1.116 1.03l.304.207-.146.073a7.785 7.79 90 0 1-4.344.485c-1.59-.413-2.596-1.965-2.912-4.523-.06-.497-.06-1.746 0-2.39a10.89 10.896 90 0 1 .51-2.546c.036-.048.073-.048.17 0z"/><path d="M3.494 6.39c-.34 1.48-.412 2.062-.436 3.396a8.415 8.42 90 0 0 1.225 5.19A8.246 8.25 90 0 1 .218 9.81c-.12-.546-.12-.558.292-1.213.934-1.503 1.99-2.437 2.85-2.546l.207-.024zm-.776-2.51c.267.025 1.334.243 1.432.303l.109.049-.073.182-.23.558-.146.363-.34.037c-.68.048-1.092.206-1.662.63-.4.316-.934.861-1.286 1.334a4.6 4.6 0 0 1-.413.546L0 8.003v-.279c0-.933.315-2.267.777-3.213.218-.461.315-.558.606-.606.194-.049 1.02-.061 1.335-.025zm1.092-2.4a3.517 3.519 90 0 0 1.456.86c0 .122-.655 1.189-.728 1.189l-.28-.061c-.509-.121-1.82-.303-2.329-.303h-.315l.097-.121a9.24 9.245 90 0 1 1.893-1.747c.024 0 .12.085.206.182zm8.796 1.115a4.705 4.708 90 0 1 1.214.34c.364.157.655.472.97 1.006a7.76 7.765 90 0 1 1.068 4.547c-.048.691-.121 1.152-.17 1.152a14.72 14.73 90 0 0-1.662-1.649c-1.65-1.358-4.768-2.935-7.887-3.977-.412-.146-.764-.28-.776-.316-.024-.048.376-.727.582-.97l.122-.145.218.048c.643.146 2.596.158 4.174.025.958-.073 1.82-.097 2.147-.061zM9.682.182a9.18 9.185 90 0 1 3.252 1.576c.17.122.17.122.073.146-.122.036-3.543.109-5.145.109-.764 0-1.213-.024-1.262-.049C6.467 1.88 7.498.946 8.3.437 8.88.049 9.05.024 9.693.194zM7.462.109c-.158.121-.51.449-1.25 1.164-.364.34-.522.473-.594.473-.243 0-1.408-.703-1.335-.812a4.002 4.004 90 0 1 .85-.413A8.925 8.925 0 0 1 7.315.024L7.608 0z"/></g></svg>
