<svg xmlns="http://www.w3.org/2000/svg" width="60" height="60" viewBox="0 0 15.88 15.88" id="svg8"><g id="layer1" transform="translate(0 -281.12)"><g id="g4589" transform="matrix(-1.11322 0 0 -1.11395 .51 614.23)" stroke="#4a0401" stroke-width=".06"><path id="path4500" d="M-7.53 298.96a7.12 7.12 0 0 1-.38-14.08c.53-.1 1.97-.1 2.49 0a7.17 7.17 0 0 1 5.51 9.22 7.17 7.17 0 0 1-5.47 4.8c-.54.1-1.62.13-2.15.06zm2.51-.7c.6-.16 1.4-.49 1.4-.59 0-.14-.93-.69-1.17-.69-.04 0-.32.25-.62.55-.3.3-.65.64-.79.75l-.24.2.43-.05c.24-.02.68-.1 1-.18zm-2.04-.08a7.65 7.65 0 0 0 1.4-1.13l.2-.22-.28-.05c-.15-.03-.9-.03-1.67 0l-2.49.04c-.88 0-1.08.02-1.03.09.14.16 1.1.76 1.57.98.48.22 1.47.51 1.77.52.08 0 .32-.1.53-.22zm4.97-1.6c.62-.6.77-.83.52-.76a9.3 9.3 0 0 1-2.26-.3c-.05-.02-.2.16-.37.47-.32.55-.33.56-.2.56.17 0 .82.38 1.05.61l.24.25.19-.1c.1-.06.47-.39.83-.73zm-6.59-.31c1.6-.13 2.96-.1 3.5.06.07.02.2-.12.4-.43.16-.26.29-.49.29-.51 0-.03-.3-.14-.67-.26a24.25 24.25 0 0 1-6.03-2.9 9.83 9.83 0 0 1-1.88-1.76 6.53 6.53 0 0 0 .8 4.84c.32.52.59.73 1.14.89.65.18.98.19 2.45.07zm7.5-1.03c.22-.06.25-.1.48-.6.32-.66.54-1.53.59-2.3.04-.67.05-.67-.38-.05a4.68 4.68 0 0 1-1.75 1.57 2.6 2.6 0 0 1-.63.14l-.4.04-.18.43-.2.5c0 .05.51.18 1.14.27.5.08 1.05.08 1.33 0zm-2.82-.83l.2-.51c0-.03-.1-.09-.2-.13a4.4 4.4 0 0 1-1.35-1.17 17.1 17.1 0 0 1-1.71-2.81c-.83-1.55-1.3-2.3-1.75-2.77-.38-.4-.9-.7-1.2-.7-.21 0-.84.48-1.43 1.1-.74.78-1.43 1.97-1.34 2.32.06.24.42.74.83 1.15 1.27 1.27 4.07 2.78 6.96 3.74l.75.24c.02 0 .13-.2.24-.46zm1.76-1.16a5.98 5.98 0 0 0 1.9-2.2c.15-.25.15-.28.07-.65a6.74 6.74 0 0 0-3.2-4.24l-.3-.18.13.21c.44.67.76 1.55.92 2.5a12.12 12.12 0 0 1-.35 4.77c0 .1.45-.02.83-.21zm-1.3-.15c.3-1.1.45-2.62.35-3.67-.2-2.37-1.16-3.81-2.67-4.05a6.96 6.96 0 0 0-2.41.15c-.56.15-1.06.32-1.06.38l.31.22c.4.26.94.84 1.34 1.46.18.27.68 1.16 1.11 1.98.9 1.7 1.42 2.52 1.93 3.04.36.37.87.73.98.7.03-.02.08-.1.11-.2z" fill="#4a0401"/><path id="path4536" d="M-4.9 294.64a25.98 25.98 0 0 1-3.39-1.39c-2.03-1-3.4-1.97-4.12-2.92l-.3-.45-.08-.19.05-.2a6.78 6.78 0 0 1 2.18-2.84c.37-.29.5-.34.69-.3.5.14 1.04.6 1.53 1.29.29.4.67 1.06 1.29 2.2.72 1.36 1.1 2 1.54 2.57a4.78 4.78 0 0 0 1.68 1.5c0 .12-.38.93-.44.93l-.64-.2z" fill="#f96830"/><path id="path4538" d="M-3.78 293.25c-.3-.13-.9-.68-1.25-1.13-.42-.56-.72-1.07-1.59-2.68-.91-1.68-1.1-1.99-1.53-2.51a4.3 4.3 0 0 0-.92-.85l-.25-.17.12-.06a6.42 6.42 0 0 1 3.58-.4c1.31.34 2.14 1.62 2.4 3.73.05.41.05 1.44 0 1.97a8.98 8.98 0 0 1-.42 2.1c-.03.04-.06.04-.14 0z" fill="#f96830"/><path id="path4540" d="M-3 293.18c.28-1.22.34-1.7.36-2.8a6.94 6.94 0 0 0-1.01-4.28 6.8 6.8 0 0 1 3.35 4.26c.1.45.1.46-.24 1-.77 1.24-1.64 2.01-2.35 2.1l-.17.02z" fill="#f96830"/><path id="path4542" d="M-2.36 295.25c-.22-.02-1.1-.2-1.18-.25l-.09-.04.06-.15.19-.46.12-.3.28-.03c.56-.04.9-.17 1.37-.52.33-.26.77-.71 1.06-1.1.13-.2.29-.4.34-.45l.09-.1v.23c0 .77-.26 1.87-.64 2.65-.18.38-.26.46-.5.5-.16.04-.84.05-1.1.02z" fill="#f96830"/><path id="path4544" d="M-3.26 297.23a2.9 2.9 0 0 0-1.2-.71c0-.1.54-.98.6-.98l.23.05c.42.1 1.5.25 1.92.25h.26l-.08.1a7.62 7.62 0 0 1-1.56 1.44c-.02 0-.1-.07-.17-.15z" fill="#f96830"/><path id="path4546" d="M-10.51 296.31a3.88 3.88 0 0 1-1-.28c-.3-.13-.54-.39-.8-.83a6.4 6.4 0 0 1-.88-3.75c.04-.57.1-.95.14-.95a12.14 12.14 0 0 0 1.37 1.36c1.36 1.12 3.93 2.42 6.5 3.28.34.12.63.23.64.26.02.04-.31.6-.48.8l-.1.12-.18-.04c-.53-.12-2.14-.13-3.44-.02-.79.06-1.5.08-1.77.05z" fill="#f96830"/><path id="path4548" d="M-8.1 298.3a7.57 7.57 0 0 1-2.68-1.3c-.14-.1-.14-.1-.06-.12.1-.03 2.92-.09 4.24-.09.63 0 1 .02 1.04.04.11.07-.74.84-1.4 1.26-.48.32-.62.34-1.15.2z" fill="#f96830"/><path id="path4550" d="M-6.27 298.36c.13-.1.42-.37 1.03-.96.3-.28.43-.39.49-.39.2 0 1.16.58 1.1.67a3.3 3.3 0 0 1-.7.34c-.53.2-1.23.36-1.8.41l-.24.02z" fill="#f96830"/></g></g></svg>
