<svg xmlns="http://www.w3.org/2000/svg" width="60" height="60" viewBox="0 0 15.88 15.88">
    <path d="M.387 10.187C-.07 11.565.085 13.15.57 14.46c.23.548.673.79 1.1.94 1.08.381 3.02.522 4.155.364.246-.004-5.438-5.577-5.438-5.577zM15.393 6.24c.186-1.947.16-4.858-1.573-5.44C12.287.353 10.992.405 9.41.561c-.271.22 5.72 5.8 5.983 5.68zM4.994 11.511l-.25-.13a1.75 1.75 0 0 1-.47-.53.89.89 0 0 1-.05-.53c.03-.1.13-.2.16-.17.12.18.22.32.24.31.03 0 .36-.47.36-.51a.31.31 0 0 0-.03-.11c-.07-.13-.02-.42.1-.55l.05-.06.07.08.12.14.04.06.06-.07.21-.25.15-.18-.06-.08c-.08-.1-.07-.2 0-.36.12-.24.17-.26.3-.1l.1.1.23-.23.22-.24-.1-.11c-.07-.06-.11-.13-.11-.15 0-.09.22-.37.3-.37.02 0 .09.05.15.12l.1.12.24-.23.22-.24-.12-.13c-.12-.12-.13-.13-.1-.2.05-.07.28-.25.35-.25.02 0 .09.05.15.1.05.05.1.1.12.1l.2-.18c.31-.29.29-.24.16-.36-.1-.08-.11-.1-.1-.16.01-.05.05-.08.16-.13.22-.1.25-.11.36-.03l.1.07.13-.1.25-.21c.13-.13.14-.1-.07-.27-.08-.06-.09-.08-.06-.11.05-.07.2-.14.34-.15.09-.01.14 0 .23.04l.1.05.19-.13.25-.2.08-.07-.06-.06a.92.92 0 0 0-.17-.13c-.1-.07-.1-.08-.07-.12.1-.12.37-.16.57-.08.25.09.56.4.7.69.1.18.1.4.01.55-.03.05-.07.1-.09.1-.02 0-.08-.07-.14-.16l-.1-.16-.24.18c-.14.1-.25.2-.26.21v.09c.07.13.01.5-.1.58-.06.05-.1.02-.21-.16a.77.77 0 0 0-.14-.16c-.02 0-.3.22-.42.33l-.07.07.08.13c.07.1.08.14.06.2-.03.17-.17.4-.24.4a1.2 1.2 0 0 1-.17-.19l-.16-.19-.22.2-.24.23c-.01 0 .03.08.1.15.13.16.13.19.02.36-.07.1-.18.2-.22.2l-.17-.15-.14-.15-.23.23-.22.23.14.15c.08.08.15.16.15.18 0 .09-.27.31-.36.31-.04 0-.1-.05-.18-.1a.65.65 0 0 0-.13-.11c-.03 0-.42.44-.42.47l.06.06c.1.07.29.25.29.28 0 .05-.13.15-.27.2-.17.07-.2.06-.31-.02a.49.49 0 0 0-.13-.07c-.02 0-.11.1-.22.24-.18.23-.19.24-.15.27.2.14.31.25.31.28 0 .06-.13.15-.25.18-.11.02-.16.02-.36-.02-.07-.01-.08 0-.25.23l-.18.26.11.1c.14.08.2.15.18.18-.03.05-.2.12-.3.14-.08 0-.16-.01-.25-.04zm2.54-10.206c-.995.425-1.93.991-2.774 1.685C2.923 4.413 1.538 6.319.829 8.56c.159.13 3.405 3.83 6.22 6.62 1.853-.455 3.012-1.228 4.32-2.44.33-.28.931-.901 1.201-1.201.84-.94 1.515-2.124 2.006-3.27.879-.239-5.877-6.906-7.041-6.965z" fill="#bcf6e2"/>
</svg>
