<svg xmlns="http://www.w3.org/2000/svg" width="60" height="60" viewBox="0 0 15.88 15.88" id="svg8"><g id="layer1" transform="translate(0 -281.12)"><path d="M11.35 281.55c-.29 0-.58.03-.87.06a11.47 11.47 0 0 0-5.72 2.5 12.3 12.3 0 0 0-4.54 7.37 7.72 7.72 0 0 0 .35 4.1c.1.23.1.25.23.37l.13.15.07.1c.1.1.27.18.67.32a7.15 7.15 0 0 0 3.37.34 11.67 11.67 0 0 0 6.33-3c.33-.28.93-.9 1.2-1.2a11.6 11.6 0 0 0 2.84-6.16c.04-.35.06-1.22.03-1.59a6.89 6.89 0 0 0-.52-2.16c-.09-.23-.14-.3-.26-.38a.96.96 0 0 1-.16-.13c-.09-.1-.26-.18-.68-.32a7.38 7.38 0 0 0-2.47-.37zm-1.71.45l.28.14c2 1.14 3.95 3.11 5.04 5.1l.06.12-.08.33a11.18 11.18 0 0 1-.5 1.48l-.04-.11a13.53 13.53 0 0 0-6.53-6.5 8.07 8.07 0 0 1 1.77-.56zm-1.06 2.21c.24 0 .45.1.69.35.24.24.37.52.33.73a.64.64 0 0 1-.13.28c-.04.04-.07.01-.18-.16l-.1-.14-.22.16c-.3.22-.29.2-.25.28.04.08.05.26.01.38-.02.09-.09.2-.14.22-.04.03-.1-.02-.23-.21l-.1-.14-.08.07-.4.33.08.1.08.13c.02.1-.1.38-.2.45-.04.04-.05.04-.1 0-.02 0-.1-.1-.16-.18l-.12-.15-.13.11-.23.21-.1.1.1.12c.09.08.12.13.12.17 0 .11-.23.38-.33.38a.7.7 0 0 1-.16-.14l-.14-.14-.22.22-.22.22.07.05c.12.1.23.22.23.25 0 .08-.18.25-.32.3-.08.04-.11.03-.25-.11l-.1-.1-.1.1-.21.24-.12.13.11.08c.15.1.26.21.26.24 0 .06-.1.14-.24.2-.2.08-.25.08-.4-.04a.44.44 0 0 0-.08-.05l-.32.38-.07.09.1.07c.15.1.26.2.26.23 0 .04-.13.14-.2.16a.56.56 0 0 1-.36.02.9.9 0 0 0-.11-.04c-.01 0-.1.1-.2.24l-.19.25.14.1c.18.1.2.14.17.18A.5.5 0 0 1 4 291c-.18.1-.37.08-.62-.05a1.76 1.76 0 0 1-.52-.53c-.15-.27-.14-.56.02-.71l.04-.04.05.05.12.17c.04.07.09.12.1.12l.36-.5s0-.04-.03-.07c-.08-.11-.06-.34.04-.52.07-.12.1-.13.18-.04l.1.13.05.06.2-.24.2-.24-.06-.07c-.05-.06-.06-.08-.06-.15 0-.1.1-.32.18-.38.07-.06.1-.05.2.08.04.06.08.1.09.1l.22-.23.2-.22-.1-.11c-.14-.14-.14-.13.03-.38.05-.08.14-.14.2-.14a.5.5 0 0 1 .13.12l.11.12.22-.22.22-.22-.13-.13-.12-.12.03-.06c.05-.1.29-.27.37-.27.01 0 .07.04.13.1l.11.1.22-.2.23-.2c0-.02-.04-.06-.1-.1-.12-.1-.14-.13-.1-.2.04-.05.09-.08.25-.14.16-.07.2-.07.3.01l.08.06.23-.19.24-.2-.09-.08a1.02 1.02 0 0 1-.13-.1l-.05-.05.07-.07c.13-.12.4-.16.56-.08l.08.05.25-.19c.14-.1.25-.18.25-.2l-.13-.1a1.4 1.4 0 0 1-.18-.12c-.03-.04-.03-.04.03-.1.1-.07.18-.1.3-.1zm-7.48 5.11l.16.31c.57 1.26 1.5 2.54 2.68 3.69a12.26 12.26 0 0 0 3.73 2.56c.05.02.05.03.01.04l-.22.09a11.88 11.88 0 0 1-1.55.46 13.07 13.07 0 0 1-2.95-2.19c-.65-.64-1.13-1.2-1.63-1.9a8.35 8.35 0 0 1-.78-1.29c0-.18.5-1.77.55-1.77z" id="path4602" fill="#803300" stroke="#1e2424" stroke-width=".52"/><path d="M5.79 296.5l-.85-.53c-.8-.54-1.38-1.02-2.16-1.82A13.17 13.17 0 0 1 .47 291a10.47 10.47 0 0 1 .54-1.83c.02 0 .04.05.26.5.25.52.44.87.75 1.34a14.8 14.8 0 0 0 3.57 3.73 11.9 11.9 0 0 0 2.1 1.22 8.18 8.18 0 0 1-1.8.58l-.1-.05z" id="path4614" fill="#fff" stroke-width="0"/><path d="M14.5 289.2a12.72 12.72 0 0 0-2.68-3.87 13.55 13.55 0 0 0-3.9-2.81 8.64 8.64 0 0 1 1.76-.57c.03 0 .27.13.48.26a14.57 14.57 0 0 1 4.95 5.25 9 9 0 0 1-.55 1.87l-.06-.13z" id="path4616" fill="#fff" stroke="#000" stroke-width="0" stroke-opacity="0"/><path d="M3.59 290.94a1.05 1.05 0 0 1-.31-.13c-.14-.1-.36-.32-.45-.46a.89.89 0 0 1-.13-.42c0-.08 0-.15.02-.21.02-.07.05-.1.1-.16l.04-.04.05.05.1.16c.09.12.1.15.12.14l.33-.44c.05-.08.05-.08.01-.15-.04-.07-.05-.1-.04-.21l.01-.16a.7.7 0 0 1 .12-.24c.03-.03.05-.04.09 0l.14.16.05.07.06-.06.35-.43-.05-.06a.54.54 0 0 1-.06-.08c-.02-.06-.01-.13.02-.23l.02-.06h2.1l.02.02c.03.05.03.07.01.1-.05.12-.27.29-.36.29-.05 0-.08-.02-.24-.17l-.07-.07-.16.2-.26.29.06.05c.14.1.27.22.3.26v.05c-.03.06-.13.14-.27.2-.17.06-.21.05-.36-.07a.46.46 0 0 0-.08-.05s-.05.04-.09.1l-.31.4.09.06c.16.11.27.21.27.25 0 .02-.03.05-.08.09-.1.07-.2.1-.34.1h-.08l-.09-.03a1.02 1.02 0 0 0-.09-.02 11.2 11.2 0 0 0-.39.5l.13.1c.14.09.2.13.2.16l-.03.04a.6.6 0 0 1-.24.12.73.73 0 0 1-.23 0z" id="path4618" fill="#fff" stroke="#803300" stroke-width="0"/><path d="M3.5 290.91l-.25-.13a1.75 1.75 0 0 1-.47-.53.89.89 0 0 1-.05-.53c.03-.1.13-.2.16-.17.12.18.22.32.24.31.03 0 .36-.47.36-.51a.31.31 0 0 0-.03-.11c-.07-.13-.02-.42.1-.55l.05-.06.07.08.12.14.04.06.06-.07.21-.25.15-.18-.06-.08c-.08-.1-.07-.2 0-.36.12-.24.17-.26.3-.1l.1.1.23-.23.22-.24-.1-.11c-.07-.06-.11-.13-.11-.15 0-.09.22-.37.3-.37.02 0 .09.05.15.12l.1.12.24-.23.22-.24-.12-.13c-.12-.12-.13-.13-.1-.2.05-.07.28-.25.35-.25.02 0 .09.05.15.1.05.05.1.1.12.1l.2-.18c.31-.29.29-.24.16-.36-.1-.08-.11-.1-.1-.16.01-.05.05-.08.16-.13.22-.1.25-.11.36-.03l.1.07.13-.1.25-.21c.13-.13.14-.1-.07-.27-.08-.06-.09-.08-.06-.11.05-.07.2-.14.34-.15.09-.01.14 0 .23.04l.1.05.19-.13.25-.2.08-.07-.06-.06c-.03-.03-.1-.09-.17-.13-.1-.07-.1-.08-.07-.12.1-.12.37-.16.57-.08.25.09.56.4.7.69.1.18.1.4.01.55-.03.05-.07.1-.09.1-.02 0-.08-.07-.14-.16l-.1-.16-.24.18c-.14.1-.25.2-.26.21v.09c.07.13.01.5-.1.58-.06.05-.1.02-.21-.16a.77.77 0 0 0-.14-.16c-.02 0-.3.22-.42.33l-.07.07.08.13c.07.1.08.14.06.2-.03.17-.17.4-.24.4a1.2 1.2 0 0 1-.17-.19l-.16-.19-.22.2a27 27 0 0 1-.24.23c-.01 0 .03.08.1.15.13.16.13.19.02.36-.07.1-.18.2-.22.2l-.17-.15-.14-.15-.23.23-.22.23.14.15c.08.08.15.16.15.18 0 .09-.27.31-.36.31-.04 0-.1-.05-.18-.1a.65.65 0 0 0-.13-.11c-.03 0-.42.44-.42.47l.06.06c.1.07.29.25.29.28 0 .05-.13.15-.27.2-.17.07-.2.06-.31-.02a.49.49 0 0 0-.13-.07c-.02 0-.11.1-.22.24-.18.23-.19.24-.15.27.2.14.31.25.31.28 0 .06-.13.15-.25.18-.11.02-.16.02-.36-.02-.07-.01-.08 0-.25.23l-.18.26.11.1c.14.08.2.15.18.18-.03.05-.2.12-.3.14-.08 0-.16-.01-.25-.04z" id="path4645" fill="#fff" stroke="#803300" stroke-width="0"/></g></svg>
